# xmcd CD database file
#
# Track frame offsets:
#	150
#	25162
#	46012
#	64650
#	84037
#	107012
#	137087
#
# Disc length: 2496 seconds
#
# Revision: 0
# Processed by: cddbd v1.5.1PL2 Copyright (c) Steve Scherf et al.
# Submitted via: CDex 1.70beta2
#
DISCID=4a09be07
DTITLE=Renee Geyer - Really Really Love You
DYEAR=1976
DGENRE=Blues
TTITLE0=Hard Head
TTITLE1=Shakey Ground
TTITLE2=Person To Person
TTITLE3=It Only Happens
TTITLE4=Booty
TTITLE5=Masquerade
TTITLE6=Really, Really Love You
EXTD=YEAR: 1976
EXTT0=
EXTT1=
EXTT2=
EXTT3=
EXTT4=
EXTT5=
EXTT6=
PLAYORDER=
